<?xml version="1.0"?>
<svg xmlns="http://www.w3.org/2000/svg" xmlns:xlink="http://www.w3.org/1999/xlink" xmlns:svgjs="http://svgjs.com/svgjs" version="1.1" width="512" height="512" x="0" y="0" viewBox="0 0 64 64" style="enable-background:new 0 0 512 512" xml:space="preserve" class=""><g><path xmlns="http://www.w3.org/2000/svg" d="m56.45 7-1.45-4.47-1.45 4.47h-4.71l3.81 2.76-1.45 4.48 3.8-2.77 3.8 2.77-1.45-4.48 3.81-2.76z" fill="#b5dfff" data-original="#78b9eb" style="" class=""/><path xmlns="http://www.w3.org/2000/svg" d="m50.14 43.07a5.234 5.234 0 0 0 -1-.77 20.009 20.009 0 1 0 -6.84 6.84 5.234 5.234 0 0 0 .77 1l7.07 7.07a5 5 0 0 0 7.07-7.07zm-18.14 4.93a16 16 0 1 1 16-16 16.021 16.021 0 0 1 -16 16z" fill="#b5dfff" data-original="#78b9eb" style="" class=""/><path xmlns="http://www.w3.org/2000/svg" d="m32.05 24h-.05a8 8 0 0 0 -.05 16h.05a8 8 0 0 0 .05-16z" fill="#b5dfff" data-original="#78b9eb" style="" class=""/><path xmlns="http://www.w3.org/2000/svg" d="m5.2 14.24 3.8-2.77 3.8 2.77-1.45-4.48 3.81-2.76h-4.71l-1.45-4.47-1.45 4.47h-4.71l3.81 2.76z" fill="#b5dfff" data-original="#78b9eb" style="" class=""/><path xmlns="http://www.w3.org/2000/svg" d="m10.45 54-1.45-4.47-1.45 4.47h-4.71l3.81 2.76-1.45 4.48 3.8-2.77 3.8 2.77-1.45-4.48 3.81-2.76z" fill="#b5dfff" data-original="#78b9eb" style="" class=""/><g xmlns="http://www.w3.org/2000/svg" fill="#1a6fb0"><path d="m32 15a17 17 0 1 0 17 17 17.019 17.019 0 0 0 -17-17zm0 32a15 15 0 1 1 15-15 15.017 15.017 0 0 1 -15 15z" fill="#5427ef" data-original="#1a6fb0" style="" class=""/><path d="m33 26h-2v1a2 2 0 0 0 -2 2v2a2 2 0 0 0 2 2h2v2h-4v2h2v1h2v-1a2 2 0 0 0 2-2v-2a2 2 0 0 0 -2-2h-2v-2h4v-2h-2z" fill="#5427ef" data-original="#1a6fb0" style="" class=""/><path d="m32 23a9 9 0 1 0 9 9 9.01 9.01 0 0 0 -9-9zm0 16a7 7 0 1 1 7-7 7.008 7.008 0 0 1 -7 7z" fill="#5427ef" data-original="#1a6fb0" style="" class=""/><path d="m5.473 10.146-1.228 3.782a1 1 0 0 0 1.539 1.117l3.216-2.337 3.216 2.337a1 1 0 0 0 1.539-1.117l-1.228-3.782 3.216-2.337a1 1 0 0 0 -.588-1.809h-3.975l-1.229-3.78a1 1 0 0 0 -1.9 0l-1.231 3.78h-3.975a1 1 0 0 0 -.588 1.809zm2.074-2.146a1 1 0 0 0 .953-.691l.5-1.545.5 1.545a1 1 0 0 0 .953.691h1.624l-1.314.955a1 1 0 0 0 -.363 1.117l.5 1.546-1.314-.955a1 1 0 0 0 -1.176 0l-1.31.955.5-1.546a1 1 0 0 0 -.363-1.117l-1.314-.955z" fill="#5427ef" data-original="#1a6fb0" style="" class=""/><path d="m51.473 10.146-1.228 3.782a1 1 0 0 0 1.539 1.117l3.216-2.337 3.216 2.337a1 1 0 0 0 1.539-1.117l-1.228-3.782 3.216-2.337a1 1 0 0 0 -.588-1.809h-3.975l-1.229-3.78a1 1 0 0 0 -1.9 0l-1.231 3.78h-3.975a1 1 0 0 0 -.588 1.809zm2.074-2.146a1 1 0 0 0 .951-.691l.502-1.545.5 1.545a1 1 0 0 0 .953.691h1.624l-1.314.955a1 1 0 0 0 -.363 1.117l.5 1.546-1.314-.955a1 1 0 0 0 -1.176 0l-1.314.955.5-1.546a1 1 0 0 0 -.363-1.117l-1.31-.955z" fill="#5427ef" data-original="#1a6fb0" style="" class=""/><path d="m15.155 53h-3.975l-1.229-3.78a1 1 0 0 0 -1.9 0l-1.231 3.78h-3.975a1 1 0 0 0 -.588 1.809l3.216 2.337-1.228 3.782a1 1 0 0 0 1.539 1.117l3.216-2.337 3.216 2.337a1 1 0 0 0 1.539-1.117l-1.228-3.782 3.216-2.337a1 1 0 0 0 -.588-1.809zm-4.755 4.072.5 1.546-1.314-.955a1 1 0 0 0 -1.176 0l-1.31.955.5-1.546a1 1 0 0 0 -.363-1.117l-1.314-.955h1.624a1 1 0 0 0 .951-.691l.502-1.545.5 1.545a1 1 0 0 0 .951.691h1.624l-1.314.955a1 1 0 0 0 -.361 1.117z" fill="#5427ef" data-original="#1a6fb0" style="" class=""/><path d="m50.836 42.353c-.126-.124-.256-.227-.385-.335a21.01 21.01 0 1 0 -8.432 8.433c.11.132.216.264.344.4l7.068 7.068a5.945 5.945 0 0 0 4.243 1.765 6 6 0 0 0 4.242-10.247zm-37.836-10.353a19 19 0 1 1 19 19 19.021 19.021 0 0 1 -19-19zm43.5 24.505a3.986 3.986 0 0 1 -5.654 0l-7.059-7.059c-.015-.015-.026-.031-.04-.046a21.182 21.182 0 0 0 5.65-5.651c.012.011.024.019.035.03l7.068 7.07a3.985 3.985 0 0 1 0 5.656z" fill="#5427ef" data-original="#1a6fb0" style="" class=""/><path d="m60 31h2v2h-2z" fill="#5427ef" data-original="#1a6fb0" style="" class=""/><path d="m56 31h2v2h-2z" fill="#5427ef" data-original="#1a6fb0" style="" class=""/><path d="m58 29h2v2h-2z" fill="#5427ef" data-original="#1a6fb0" style="" class=""/><path d="m58 33h2v2h-2z" fill="#5427ef" data-original="#1a6fb0" style="" class=""/><path d="m2 31h2v2h-2z" fill="#5427ef" data-original="#1a6fb0" style="" class=""/><path d="m6 31h2v2h-2z" fill="#5427ef" data-original="#1a6fb0" style="" class=""/><path d="m4 29h2v2h-2z" fill="#5427ef" data-original="#1a6fb0" style="" class=""/><path d="m4 33h2v2h-2z" fill="#5427ef" data-original="#1a6fb0" style="" class=""/><path d="m33 4h2v2h-2z" fill="#5427ef" data-original="#1a6fb0" style="" class=""/><path d="m29 4h2v2h-2z" fill="#5427ef" data-original="#1a6fb0" style="" class=""/><path d="m31 2h2v2h-2z" fill="#5427ef" data-original="#1a6fb0" style="" class=""/><path d="m31 6h2v2h-2z" fill="#5427ef" data-original="#1a6fb0" style="" class=""/><path d="m33 58h2v2h-2z" fill="#5427ef" data-original="#1a6fb0" style="" class=""/><path d="m29 58h2v2h-2z" fill="#5427ef" data-original="#1a6fb0" style="" class=""/><path d="m31 60h2v2h-2z" fill="#5427ef" data-original="#1a6fb0" style="" class=""/><path d="m31 56h2v2h-2z" fill="#5427ef" data-original="#1a6fb0" style="" class=""/></g></g></svg>
